<svg width="60" height="60" viewBox="0 0 60 60" fill="none" xmlns="http://www.w3.org/2000/svg">
<g clip-path="url(#clip0_339_1823)">
<path style="mix-blend-mode:overlay" opacity="0.3" d="M29.1683 2.37903C13.7286 2.37903 1.21216 14.8761 1.21216 30.2919C1.21216 45.7077 13.7286 58.2048 29.1683 58.2048C44.608 58.2048 57.1244 45.7077 57.1244 30.2919C57.1244 14.8761 44.608 2.37903 29.1683 2.37903ZM29.1683 55.8668C15.0217 55.8668 3.55372 44.4166 3.55372 30.2919C3.55372 16.1672 15.0217 4.71697 29.1683 4.71697C43.3149 4.71697 54.7829 16.1672 54.7829 30.2919C54.7829 44.4166 43.3149 55.8668 29.1683 55.8668Z" fill="url(#paint0_radial_339_1823)"/>
<g style="mix-blend-mode:screen" opacity="0.3">
<path style="mix-blend-mode:screen" opacity="0.5" d="M29.0596 3.47607C14.2567 3.47607 2.25562 15.4586 2.25562 30.2386C2.25562 34.6944 3.3478 38.8962 5.27777 42.5916L53.3908 19.0019C49.1371 9.83462 39.8421 3.47607 29.0596 3.47607Z" fill="url(#paint1_radial_339_1823)"/>
</g>
<path d="M29.1682 1.16882C13.0593 1.16882 0 14.2079 0 30.2919C0 46.376 13.0593 59.415 29.1682 59.415C45.2772 59.415 58.3365 46.376 58.3365 30.2919C58.3365 14.2079 45.2772 1.16882 29.1682 1.16882ZM29.1682 58.8746C13.3574 58.8746 0.541233 46.0783 0.541233 30.2919C0.541233 14.5056 13.3574 1.7076 29.1682 1.7076C44.9791 1.7076 57.7953 14.5056 57.7953 30.2903C57.7953 46.075 44.9774 58.873 29.1682 58.873V58.8746Z" fill="url(#paint2_linear_339_1823)"/>
<g style="mix-blend-mode:screen" filter="url(#filter0_f_339_1823)">
<circle cx="29.03" cy="30.3593" r="26.551" fill="#CE192D" fill-opacity="0.25"/>
</g>
<g clip-path="url(#clip1_339_1823)">
<path d="M18.6309 27.9183C17.9461 30.1659 18.1657 32.709 19.3027 34.8924C19.897 35.9713 20.6981 36.9474 21.693 37.7181C22.6878 38.4887 23.8507 39.0154 25.0781 39.3108C27.5329 39.8631 30.1816 39.375 32.223 38.0007C34.2773 36.6264 35.6468 34.4429 36.0603 32.1439C36.4867 29.832 35.9311 27.4559 34.6519 25.6064C33.3857 23.7569 31.4478 22.4339 29.303 21.9715C27.197 21.5092 24.9101 21.7275 22.9204 22.7807C20.9048 23.7954 19.3156 25.6706 18.6309 27.9183ZM16.2148 27.3403C16.7833 24.4119 18.5792 21.6633 21.1632 19.9165C22.4682 19.0688 23.9411 18.4523 25.5044 18.1698C27.0678 17.8872 28.6828 17.9643 30.2204 18.3496C33.2954 19.1331 35.9958 21.1881 37.5074 23.8981C39.0319 26.5953 39.355 29.8705 38.5023 32.7347C37.6754 35.6117 35.6468 38.0521 33.1144 39.4264C30.595 40.8392 27.5458 41.2245 24.8068 40.5052C22.0677 39.7988 19.5611 38.1291 17.9461 35.7401C16.2794 33.3769 15.6204 30.2687 16.2148 27.3403Z" fill="white"/>
<path d="M28.0243 30.3072C27.8046 30.7952 27.8692 31.3989 28.1664 32.0026C28.4506 32.5934 28.9157 33.1585 29.4196 33.6594C30.4274 34.6868 31.6807 35.4961 32.934 36.2538C34.2002 36.9988 35.5826 37.5896 36.9781 37.8979C38.3217 38.2189 39.8981 38.1676 40.4148 37.4226C40.6731 37.0631 40.7378 36.4465 40.5311 35.7915C40.3373 35.1365 39.9884 34.4814 39.5363 33.8778C38.6319 32.6576 37.4173 31.6558 36.0865 30.8338C34.7428 30.0503 33.2698 29.4466 31.7324 29.254C30.9701 29.1641 30.2078 29.1641 29.523 29.331C28.8253 29.4723 28.2568 29.8319 28.0243 30.3072ZM26.8356 29.6264C27.4428 28.7017 28.4506 28.3035 29.3163 28.2008C30.2078 28.0852 31.0734 28.1751 31.8875 28.342C33.5411 28.676 35.0658 29.3053 36.5129 30.1017C37.9599 30.898 39.3166 31.8613 40.4665 33.12C41.0349 33.7493 41.5647 34.4428 41.9265 35.2905C42.2883 36.1125 42.4821 37.2428 41.9523 38.2961C41.3839 39.3365 40.2985 39.863 39.3683 40.0556C38.4122 40.2612 37.4948 40.2612 36.6033 40.1456C34.8203 39.9143 33.1795 39.2722 31.6678 38.4502C30.1561 37.6025 28.8253 36.4337 27.7917 34.9951C27.2878 34.2631 26.8485 33.4668 26.5901 32.5677C26.3188 31.6943 26.2542 30.564 26.8356 29.6264Z" fill="white"/>
<path d="M27.3517 31.8888C28.3864 31.8888 29.2252 31.055 29.2252 30.0264C29.2252 28.9979 28.3864 28.1641 27.3517 28.1641C26.317 28.1641 25.4783 28.9979 25.4783 30.0264C25.4783 31.055 26.317 31.8888 27.3517 31.8888Z" fill="url(#paint3_linear_339_1823)"/>
</g>
</g>
<defs>
<filter id="filter0_f_339_1823" x="-17.0917" y="-15.7624" width="92.2435" height="92.2434" filterUnits="userSpaceOnUse" color-interpolation-filters="sRGB">
<feFlood flood-opacity="0" result="BackgroundImageFix"/>
<feBlend mode="normal" in="SourceGraphic" in2="BackgroundImageFix" result="shape"/>
<feGaussianBlur stdDeviation="9.78537" result="effect1_foregroundBlur_339_1823"/>
</filter>
<radialGradient id="paint0_radial_339_1823" cx="0" cy="0" r="1" gradientUnits="userSpaceOnUse" gradientTransform="translate(29.1683 30.2919) scale(26.7035 26.6622)">
<stop offset="0.79" stop-color="#231F20"/>
<stop offset="0.82" stop-color="#262223"/>
<stop offset="0.85" stop-color="#2F2B2C"/>
<stop offset="0.88" stop-color="#3F3C3C"/>
<stop offset="0.91" stop-color="#565353"/>
<stop offset="0.93" stop-color="#737171"/>
<stop offset="0.95" stop-color="#979596"/>
<stop offset="0.97" stop-color="#C2C1C1"/>
<stop offset="1" stop-color="white"/>
</radialGradient>
<radialGradient id="paint1_radial_339_1823" cx="0" cy="0" r="1" gradientUnits="userSpaceOnUse" gradientTransform="translate(12.915 18.557) scale(49.4126 49.3362)">
<stop stop-color="white"/>
<stop offset="1" stop-color="white"/>
</radialGradient>
<linearGradient id="paint2_linear_339_1823" x1="4.67826" y1="14.7305" x2="53.9771" y2="46.1507" gradientUnits="userSpaceOnUse">
<stop stop-color="white"/>
<stop offset="0.04" stop-color="#F3F3F3"/>
<stop offset="0.1" stop-color="#D6D5D6"/>
<stop offset="0.18" stop-color="#A5A5A6"/>
<stop offset="0.28" stop-color="#646364"/>
<stop offset="0.33" stop-color="#414042"/>
<stop offset="0.51" stop-color="#717072"/>
<stop offset="0.93" stop-color="#EBEBEB"/>
<stop offset="1" stop-color="white"/>
</linearGradient>
<linearGradient id="paint3_linear_339_1823" x1="25.5083" y1="28.9043" x2="29.1396" y2="31.3661" gradientUnits="userSpaceOnUse">
<stop stop-color="#CE192D"/>
<stop offset="1" stop-color="#750D08"/>
</linearGradient>
<clipPath id="clip0_339_1823">
<rect width="59.2357" height="60" fill="white"/>
</clipPath>
<clipPath id="clip1_339_1823">
<rect width="26.3062" height="23" fill="white" transform="translate(16 18)"/>
</clipPath>
</defs>
</svg>
