<svg width="1440" height="826" viewBox="0 0 1440 826" fill="none" xmlns="http://www.w3.org/2000/svg">
<g clip-path="url(#clip0_146_2584)">
<rect width="1440" height="826" fill="#212122"/>
<g clip-path="url(#clip1_146_2584)">
<line x1="44.5" y1="940" x2="44.5" y2="-10" stroke="white" stroke-opacity="0.04"/>
<line x1="98.5" y1="940" x2="98.5" y2="-10" stroke="white" stroke-opacity="0.04"/>
<line x1="152.5" y1="940" x2="152.5" y2="-10" stroke="white" stroke-opacity="0.04"/>
<line x1="206.5" y1="940" x2="206.5" y2="-10" stroke="white" stroke-opacity="0.04"/>
<line x1="260.5" y1="940" x2="260.5" y2="-10" stroke="white" stroke-opacity="0.04"/>
<line x1="314.5" y1="940" x2="314.5" y2="-10" stroke="white" stroke-opacity="0.04"/>
<line x1="368.5" y1="940" x2="368.5" y2="-10" stroke="white" stroke-opacity="0.04"/>
<line x1="422.5" y1="940" x2="422.5" y2="-10" stroke="white" stroke-opacity="0.04"/>
<line x1="476.5" y1="940" x2="476.5" y2="-10" stroke="white" stroke-opacity="0.04"/>
<line x1="530.5" y1="940" x2="530.5" y2="-10" stroke="white" stroke-opacity="0.04"/>
<line x1="584.5" y1="940" x2="584.5" y2="-10" stroke="white" stroke-opacity="0.04"/>
<line x1="638.5" y1="940" x2="638.5" y2="-10" stroke="white" stroke-opacity="0.04"/>
<line x1="692.5" y1="940" x2="692.5" y2="-10" stroke="white" stroke-opacity="0.04"/>
<line x1="746.5" y1="940" x2="746.5" y2="-10" stroke="white" stroke-opacity="0.04"/>
<line x1="800.5" y1="940" x2="800.5" y2="-10" stroke="white" stroke-opacity="0.04"/>
<line x1="854.5" y1="940" x2="854.5" y2="-10" stroke="white" stroke-opacity="0.04"/>
<line x1="908.5" y1="940" x2="908.5" y2="-10" stroke="white" stroke-opacity="0.04"/>
<line x1="962.5" y1="940" x2="962.5" y2="-10" stroke="white" stroke-opacity="0.04"/>
<line x1="1016.5" y1="940" x2="1016.5" y2="-10" stroke="white" stroke-opacity="0.04"/>
<line x1="1070.5" y1="940" x2="1070.5" y2="-10" stroke="white" stroke-opacity="0.04"/>
<line x1="1124.5" y1="940" x2="1124.5" y2="-10" stroke="white" stroke-opacity="0.04"/>
<line x1="1178.5" y1="940" x2="1178.5" y2="-10" stroke="white" stroke-opacity="0.04"/>
<line x1="1232.5" y1="940" x2="1232.5" y2="-10" stroke="white" stroke-opacity="0.04"/>
<line x1="1286.5" y1="940" x2="1286.5" y2="-10" stroke="white" stroke-opacity="0.04"/>
<line x1="1340.5" y1="940" x2="1340.5" y2="-10" stroke="white" stroke-opacity="0.04"/>
<line x1="1394.5" y1="940" x2="1394.5" y2="-10" stroke="white" stroke-opacity="0.04"/>
<line x1="1569.45" y1="809" x2="-128" y2="809" stroke="white" stroke-opacity="0.04"/>
<line x1="1569.45" y1="754" x2="-128" y2="754" stroke="white" stroke-opacity="0.04"/>
<line x1="1569.45" y1="699" x2="-128" y2="699" stroke="white" stroke-opacity="0.04"/>
<line x1="1569.45" y1="644" x2="-128" y2="644" stroke="white" stroke-opacity="0.04"/>
<line x1="1569.45" y1="589" x2="-128" y2="589" stroke="white" stroke-opacity="0.04"/>
<line x1="1569.45" y1="534" x2="-128" y2="534" stroke="white" stroke-opacity="0.04"/>
<line x1="1569.45" y1="479" x2="-128" y2="479" stroke="white" stroke-opacity="0.04"/>
<line x1="1569.45" y1="424" x2="-128" y2="424" stroke="white" stroke-opacity="0.04"/>
<line x1="1569.45" y1="369" x2="-128" y2="369" stroke="white" stroke-opacity="0.04"/>
<line x1="1569.45" y1="314" x2="-128" y2="314" stroke="white" stroke-opacity="0.04"/>
<line x1="1569.45" y1="259" x2="-128" y2="259" stroke="white" stroke-opacity="0.04"/>
<line x1="1569.45" y1="204" x2="-128" y2="204" stroke="white" stroke-opacity="0.04"/>
<line x1="1569.45" y1="149" x2="-128" y2="149" stroke="white" stroke-opacity="0.04"/>
<line x1="1569.45" y1="94" x2="-128" y2="94" stroke="white" stroke-opacity="0.04"/>
<line x1="1569.45" y1="39" x2="-128" y2="39" stroke="white" stroke-opacity="0.04"/>
</g>
<g filter="url(#filter0_f_146_2584)">
<circle cx="720" cy="148" r="418" fill="#D9D9D9"/>
<circle cx="720" cy="148" r="418" fill="url(#paint0_linear_146_2584)"/>
</g>
</g>
<defs>
<filter id="filter0_f_146_2584" x="-178" y="-750" width="1796" height="1796" filterUnits="userSpaceOnUse" color-interpolation-filters="sRGB">
<feFlood flood-opacity="0" result="BackgroundImageFix"/>
<feBlend mode="normal" in="SourceGraphic" in2="BackgroundImageFix" result="shape"/>
<feGaussianBlur stdDeviation="240" result="effect1_foregroundBlur_146_2584"/>
</filter>
<linearGradient id="paint0_linear_146_2584" x1="720" y1="-270" x2="720" y2="566" gradientUnits="userSpaceOnUse">
<stop stop-color="#CE192D"/>
<stop offset="1" stop-color="#6E0C05"/>
</linearGradient>
<clipPath id="clip0_146_2584">
<rect width="1440" height="826" fill="white"/>
</clipPath>
<clipPath id="clip1_146_2584">
<rect width="1697" height="826" fill="white" transform="translate(-128)"/>
</clipPath>
</defs>
</svg>
