<svg width="1439" height="800" viewBox="0 0 1439 800" fill="none" xmlns="http://www.w3.org/2000/svg">
<g clip-path="url(#clip0_34_297)">
<rect width="1440" height="800" fill="white"/>
<g opacity="0.4">
<circle cx="720" cy="400" r="350" fill="white"/>
<circle cx="720" cy="400" r="348.5" stroke="black" stroke-opacity="0.2" stroke-width="3"/>
</g>
<g opacity="0.2">
<circle cx="720" cy="400" r="500" fill="white"/>
<circle cx="720" cy="400" r="498.5" stroke="black" stroke-opacity="0.2" stroke-width="3"/>
</g>
<g opacity="0.1" filter="url(#filter0_d_34_297)">
<circle cx="720" cy="400" r="650" fill="white"/>
<circle cx="720" cy="400" r="648.5" stroke="black" stroke-opacity="0.2" stroke-width="3"/>
</g>
<g opacity="0.1" filter="url(#filter1_f_34_297)">
<circle cx="720" cy="400" r="238" fill="#CE192D"/>
</g>
<circle opacity="0.4" cx="720" cy="400" r="237" stroke="#CE192D" stroke-width="2" stroke-dasharray="12 12"/>
<path fill-rule="evenodd" clip-rule="evenodd" d="M1271.76 684.402L1302.65 685.256L1316.44 712.914L1316.43 712.914L1316.43 712.915L1301.23 736.742L1270.34 735.888L1285.54 712.06L1285.54 712.06L1270.34 735.888L1256.55 708.23L1271.76 684.404L1271.76 684.405L1271.76 684.402Z" fill="#E6DFDF"/>
<path d="M1302.65 685.256L1303.27 684.947L1303.09 684.575L1302.67 684.563L1302.65 685.256ZM1271.76 684.402L1271.78 683.71L1270.63 683.678L1271.14 684.711L1271.76 684.402ZM1316.44 712.914L1316.42 713.606L1317.57 713.638L1317.06 712.605L1316.44 712.914ZM1316.43 712.914L1316.45 712.221L1313.95 712.152L1316.06 713.498L1316.43 712.914ZM1316.43 712.915L1317.02 713.288L1317.39 712.704L1316.81 712.332L1316.43 712.915ZM1301.23 736.742L1301.21 737.434L1301.6 737.445L1301.81 737.114L1301.23 736.742ZM1270.34 735.888L1269.75 735.516L1269.1 736.547L1270.32 736.581L1270.34 735.888ZM1285.54 712.06L1286.13 712.433L1286.79 711.399L1285.56 711.368L1285.54 712.06ZM1285.54 712.06L1285.56 711.368L1285.17 711.358L1284.96 711.688L1285.54 712.06ZM1270.34 735.888L1269.72 736.197L1270.26 737.292L1270.92 736.261L1270.34 735.888ZM1256.55 708.23L1255.97 707.858L1255.76 708.188L1255.93 708.539L1256.55 708.23ZM1271.76 684.404L1272.13 683.82L1271.55 683.447L1271.18 684.031L1271.76 684.404ZM1271.76 684.405L1271.39 684.989L1273.5 686.334L1272.38 684.096L1271.76 684.405ZM1302.67 684.563L1271.78 683.71L1271.74 685.095L1302.63 685.948L1302.67 684.563ZM1317.06 712.605L1303.27 684.947L1302.03 685.565L1315.82 713.223L1317.06 712.605ZM1316.41 713.606L1316.42 713.606L1316.45 712.222L1316.45 712.221L1316.41 713.606ZM1316.06 713.498L1316.06 713.499L1316.81 712.332L1316.8 712.33L1316.06 713.498ZM1315.85 712.543L1300.64 736.369L1301.81 737.114L1317.02 713.288L1315.85 712.543ZM1301.25 736.049L1270.36 735.196L1270.32 736.581L1301.21 737.434L1301.25 736.049ZM1270.92 736.261L1286.13 712.433L1284.96 711.688L1269.75 735.516L1270.92 736.261ZM1285.53 712.753L1285.53 712.753L1285.56 711.368L1285.56 711.368L1285.53 712.753ZM1284.96 711.688L1269.75 735.516L1270.92 736.261L1286.13 712.433L1284.96 711.688ZM1270.96 735.579L1257.17 707.921L1255.93 708.539L1269.72 736.197L1270.96 735.579ZM1257.14 708.603L1272.34 684.776L1271.18 684.031L1255.97 707.858L1257.14 708.603ZM1271.39 684.988L1271.39 684.989L1272.13 683.821L1272.13 683.82L1271.39 684.988ZM1271.14 684.711L1271.14 684.714L1272.38 684.096L1272.38 684.093L1271.14 684.711Z" fill="#C3C3C3"/>
<path d="M1271.76 684.404L1256.55 708.23L1270.34 735.888L1294.1 698.66L1271.76 684.404Z" fill="#FF4F4F"/>
<path d="M1294.1 698.661L1270.34 735.89L1301.23 736.743L1316.44 712.916L1294.1 698.661Z" fill="#E03535"/>
<path d="M1302.65 685.256L1271.76 684.402L1285.54 712.06L1316.44 712.914L1302.65 685.256Z" fill="#FF6C6C"/>
<path fill-rule="evenodd" clip-rule="evenodd" d="M1174.62 528.871L1205.03 523.374L1224.19 547.619L1224.19 547.62L1224.19 547.621L1214.2 574.058L1183.79 579.556L1193.79 553.116L1193.78 553.116L1183.79 579.555L1164.62 555.31L1174.62 528.873L1174.63 528.874L1174.62 528.871Z" fill="#E6DFDF"/>
<path d="M1205.03 523.374L1205.58 522.945L1205.32 522.618L1204.91 522.692L1205.03 523.374ZM1174.62 528.871L1174.5 528.19L1173.36 528.395L1174.08 529.301L1174.62 528.871ZM1224.19 547.619L1224.32 548.301L1225.45 548.095L1224.74 547.19L1224.19 547.619ZM1224.19 547.62L1224.07 546.938L1221.61 547.383L1223.95 548.267L1224.19 547.62ZM1224.19 547.621L1224.84 547.866L1225.09 547.218L1224.44 546.973L1224.19 547.621ZM1214.2 574.058L1214.32 574.74L1214.7 574.67L1214.84 574.303L1214.2 574.058ZM1183.79 579.556L1183.14 579.311L1182.7 580.455L1183.91 580.237L1183.79 579.556ZM1193.79 553.116L1194.43 553.361L1194.87 552.214L1193.66 552.435L1193.79 553.116ZM1193.78 553.116L1193.66 552.435L1193.28 552.505L1193.14 552.871L1193.78 553.116ZM1183.79 579.555L1183.24 579.985L1184 580.945L1184.43 579.8L1183.79 579.555ZM1164.62 555.31L1163.98 555.065L1163.84 555.432L1164.08 555.74L1164.62 555.31ZM1174.62 528.873L1174.87 528.225L1174.22 527.98L1173.98 528.628L1174.62 528.873ZM1174.63 528.874L1174.38 529.521L1176.72 530.406L1175.17 528.444L1174.63 528.874ZM1204.91 522.692L1174.5 528.19L1174.75 529.553L1205.16 524.056L1204.91 522.692ZM1224.74 547.19L1205.58 522.945L1204.49 523.803L1223.65 548.049L1224.74 547.19ZM1224.31 548.301L1224.32 548.301L1224.07 546.938L1224.07 546.938L1224.31 548.301ZM1223.95 548.267L1223.95 548.269L1224.44 546.973L1224.44 546.972L1223.95 548.267ZM1223.55 547.376L1213.55 573.813L1214.84 574.303L1224.84 547.866L1223.55 547.376ZM1214.07 573.377L1183.66 578.874L1183.91 580.237L1214.32 574.74L1214.07 573.377ZM1184.43 579.801L1194.43 553.361L1193.14 552.871L1183.14 579.311L1184.43 579.801ZM1193.91 553.798L1193.91 553.798L1193.66 552.435L1193.66 552.435L1193.91 553.798ZM1193.14 552.871L1183.14 579.31L1184.43 579.8L1194.43 553.361L1193.14 552.871ZM1184.33 579.126L1165.17 554.881L1164.08 555.74L1183.24 579.985L1184.33 579.126ZM1165.27 555.555L1175.27 529.118L1173.98 528.628L1163.98 555.065L1165.27 555.555ZM1174.38 529.521L1174.38 529.521L1174.87 528.226L1174.87 528.225L1174.38 529.521ZM1174.08 529.301L1174.08 529.303L1175.17 528.444L1175.17 528.442L1174.08 529.301Z" fill="#C3C3C3"/>
<path d="M1174.62 528.873L1164.62 555.31L1183.79 579.555L1199.41 538.247L1174.62 528.873Z" fill="#FF4F4F"/>
<path d="M1199.41 538.247L1183.79 579.556L1214.2 574.059L1224.2 547.621L1199.41 538.247Z" fill="#E03535"/>
<path d="M1205.03 523.374L1174.62 528.871L1193.78 553.116L1224.19 547.619L1205.03 523.374Z" fill="#FF6C6C"/>
<path fill-rule="evenodd" clip-rule="evenodd" d="M989.75 223.895L1006.99 198.251L1037.73 201.396L1037.73 201.399L1037.74 201.398L1049.73 226.989L1032.49 252.634L1020.49 227.041L1020.49 227.041L1032.49 252.634L1001.75 249.489L989.75 223.897L989.753 223.896L989.75 223.895Z" fill="#E6DFDF"/>
<path d="M1006.99 198.251L1007.06 197.562L1006.65 197.519L1006.42 197.864L1006.99 198.251ZM989.75 223.895L989.175 223.509L988.531 224.467L989.679 224.584L989.75 223.895ZM1037.73 201.396L1038.31 201.783L1038.95 200.825L1037.8 200.707L1037.73 201.396ZM1037.73 201.399L1037.16 201.012L1035.76 203.088L1038.03 202.026L1037.73 201.399ZM1037.74 201.398L1038.36 201.104L1038.07 200.477L1037.44 200.771L1037.74 201.398ZM1049.73 226.989L1050.31 227.376L1050.53 227.05L1050.36 226.695L1049.73 226.989ZM1032.49 252.634L1031.87 252.928L1032.38 254.036L1033.07 253.021L1032.49 252.634ZM1020.49 227.041L1021.12 226.747L1020.6 225.637L1019.92 226.656L1020.49 227.041ZM1020.49 227.041L1019.92 226.656L1019.7 226.981L1019.86 227.335L1020.49 227.041ZM1032.49 252.634L1032.42 253.323L1033.64 253.448L1033.12 252.34L1032.49 252.634ZM1001.75 249.489L1001.12 249.783L1001.29 250.138L1001.68 250.178L1001.75 249.489ZM989.75 223.897L989.456 223.27L988.829 223.564L989.123 224.191L989.75 223.897ZM989.753 223.896L990.047 224.523L992.311 223.461L989.823 223.207L989.753 223.896ZM1006.42 197.864L989.175 223.509L990.324 224.282L1007.57 198.637L1006.42 197.864ZM1037.8 200.707L1007.06 197.562L1006.92 198.94L1037.66 202.085L1037.8 200.707ZM1038.31 201.786L1038.31 201.783L1037.16 201.01L1037.16 201.012L1038.31 201.786ZM1038.03 202.026L1038.03 202.025L1037.44 200.771L1037.44 200.772L1038.03 202.026ZM1037.11 201.692L1049.11 227.283L1050.36 226.695L1038.36 201.104L1037.11 201.692ZM1049.16 226.603L1031.92 252.248L1033.07 253.021L1050.31 227.376L1049.16 226.603ZM1033.12 252.34L1021.12 226.747L1019.86 227.335L1031.87 252.928L1033.12 252.34ZM1021.07 227.426L1021.07 227.426L1019.92 226.656L1019.92 226.656L1021.07 227.426ZM1019.86 227.335L1031.86 252.929L1033.12 252.34L1021.12 226.747L1019.86 227.335ZM1032.56 251.945L1001.82 248.8L1001.68 250.178L1032.42 253.323L1032.56 251.945ZM1002.38 249.195L990.378 223.603L989.123 224.191L1001.12 249.783L1002.38 249.195ZM990.044 224.524L990.047 224.523L989.459 223.269L989.456 223.27L990.044 224.524ZM989.679 224.584L989.682 224.585L989.823 223.207L989.82 223.206L989.679 224.584Z" fill="#C3C3C3"/>
<path d="M989.75 223.897L1001.75 249.489L1032.49 252.634L1013.74 212.647L989.75 223.897Z" fill="#FF4F4F"/>
<path d="M1013.74 212.646L1032.49 252.633L1049.74 226.989L1037.74 201.397L1013.74 212.646Z" fill="#E03535"/>
<path d="M1006.99 198.251L989.75 223.895L1020.49 227.041L1037.73 201.396L1006.99 198.251Z" fill="#FF6C6C"/>
<path fill-rule="evenodd" clip-rule="evenodd" d="M935.623 634.718L965.23 643.573L971.348 673.864L971.345 673.863L971.347 673.865L950.469 692.919L920.863 684.063L941.742 665.008L941.742 665.008L920.862 684.063L914.744 653.772L935.622 634.719L935.624 634.721L935.623 634.718Z" fill="#E6DFDF"/>
<path d="M965.23 643.573L965.909 643.436L965.826 643.029L965.428 642.91L965.23 643.573ZM935.623 634.718L935.822 634.054L934.716 633.723L934.944 634.855L935.623 634.718ZM971.348 673.864L971.15 674.528L972.256 674.858L972.027 673.727L971.348 673.864ZM971.345 673.863L971.544 673.2L969.148 672.483L970.834 674.33L971.345 673.863ZM971.347 673.865L971.814 674.377L972.326 673.91L971.859 673.398L971.347 673.865ZM950.469 692.919L950.271 693.582L950.646 693.695L950.936 693.43L950.469 692.919ZM920.863 684.063L920.396 683.551L919.492 684.376L920.664 684.726L920.863 684.063ZM941.742 665.008L942.209 665.52L943.115 664.693L941.939 664.344L941.742 665.008ZM941.742 665.008L941.939 664.344L941.564 664.233L941.275 664.497L941.742 665.008ZM920.862 684.063L920.184 684.2L920.426 685.399L921.329 684.574L920.862 684.063ZM914.744 653.772L914.277 653.26L913.987 653.525L914.065 653.909L914.744 653.772ZM935.622 634.719L936.134 634.252L935.667 633.74L935.155 634.207L935.622 634.719ZM935.624 634.721L935.112 635.188L936.798 637.035L936.303 634.584L935.624 634.721ZM965.428 642.91L935.822 634.054L935.425 635.381L965.031 644.237L965.428 642.91ZM972.027 673.727L965.909 643.436L964.551 643.71L970.669 674.001L972.027 673.727ZM971.147 674.527L971.15 674.528L971.547 673.2L971.544 673.2L971.147 674.527ZM970.834 674.33L970.836 674.332L971.859 673.398L971.857 673.396L970.834 674.33ZM970.88 673.354L950.002 692.407L950.936 693.43L971.814 674.377L970.88 673.354ZM950.668 692.255L921.061 683.399L920.664 684.726L950.271 693.582L950.668 692.255ZM921.33 684.575L942.209 665.52L941.275 664.497L920.396 683.551L921.33 684.575ZM941.545 665.672L941.545 665.672L941.939 664.344L941.939 664.344L941.545 665.672ZM941.275 664.497L920.396 683.551L921.329 684.574L942.209 665.52L941.275 664.497ZM921.541 683.926L915.423 653.635L914.065 653.909L920.184 684.2L921.541 683.926ZM915.211 654.284L936.089 635.23L935.155 634.207L914.277 653.26L915.211 654.284ZM935.11 635.186L935.112 635.188L936.135 634.254L936.134 634.252L935.11 635.186ZM934.944 634.855L934.945 634.858L936.303 634.584L936.302 634.58L934.944 634.855Z" fill="#C3C3C3"/>
<path d="M935.622 634.719L914.744 653.772L920.863 684.063L953.485 654.292L935.622 634.719Z" fill="#FF4F4F"/>
<path d="M953.486 654.294L920.864 684.064L950.47 692.92L971.349 673.867L953.486 654.294Z" fill="#E03535"/>
<path d="M965.23 643.573L935.623 634.718L941.742 665.008L971.348 673.864L965.23 643.573Z" fill="#FF6C6C"/>
<path fill-rule="evenodd" clip-rule="evenodd" d="M1287.2 48.2118L1316.19 58.9159L1320.38 89.5321L1320.38 89.531L1320.38 89.5333L1298.34 107.233L1269.35 96.5288L1291.39 78.8281L1291.39 78.828L1269.35 96.5286L1265.16 65.9124L1287.19 48.2129L1287.2 48.215L1287.2 48.2118Z" fill="#E6DFDF"/>
<path d="M1316.19 58.9159L1316.87 58.8219L1316.81 58.4101L1316.43 58.2662L1316.19 58.9159ZM1287.2 48.2118L1287.44 47.5621L1286.35 47.1622L1286.51 48.3059L1287.2 48.2118ZM1320.38 89.5321L1320.14 90.1818L1321.23 90.5818L1321.07 89.438L1320.38 89.5321ZM1320.38 89.531L1320.62 88.8813L1318.27 88.0147L1319.84 89.9647L1320.38 89.531ZM1320.38 89.5333L1320.82 90.0733L1321.36 89.6396L1320.92 89.0996L1320.38 89.5333ZM1298.34 107.233L1298.1 107.883L1298.47 108.018L1298.78 107.773L1298.34 107.233ZM1269.35 96.5288L1268.92 95.9888L1267.97 96.7548L1269.11 97.1785L1269.35 96.5288ZM1291.39 78.8281L1291.83 79.3681L1292.78 78.6002L1291.63 78.1778L1291.39 78.8281ZM1291.39 78.828L1291.63 78.1777L1291.26 78.043L1290.96 78.288L1291.39 78.828ZM1269.35 96.5286L1268.67 96.6227L1268.83 97.8346L1269.79 97.0686L1269.35 96.5286ZM1265.16 65.9124L1264.72 65.3724L1264.42 65.618L1264.47 66.0065L1265.16 65.9124ZM1287.19 48.2129L1287.73 47.7791L1287.3 47.2391L1286.76 47.6728L1287.19 48.2129ZM1287.2 48.215L1286.66 48.6487L1288.22 50.5983L1287.88 48.1209L1287.2 48.215ZM1316.43 58.2662L1287.44 47.5621L1286.96 48.8615L1315.95 59.5657L1316.43 58.2662ZM1321.07 89.438L1316.87 58.8219L1315.5 59.01L1319.7 89.6261L1321.07 89.438ZM1320.14 90.1807L1320.14 90.1818L1320.62 88.8824L1320.62 88.8813L1320.14 90.1807ZM1319.84 89.9647L1319.84 89.967L1320.92 89.0996L1320.92 89.0973L1319.84 89.9647ZM1319.95 88.9933L1297.91 106.693L1298.78 107.773L1320.82 90.0733L1319.95 88.9933ZM1298.58 106.583L1269.59 95.8791L1269.11 97.1785L1298.1 107.883L1298.58 106.583ZM1269.79 97.0688L1291.83 79.3681L1290.96 78.2881L1268.92 95.9888L1269.79 97.0688ZM1291.15 79.4782L1291.15 79.4783L1291.63 78.1778L1291.63 78.1777L1291.15 79.4782ZM1290.96 78.288L1268.92 95.9886L1269.79 97.0686L1291.83 79.368L1290.96 78.288ZM1270.04 96.4345L1265.84 65.8184L1264.47 66.0065L1268.67 96.6227L1270.04 96.4345ZM1265.59 66.4524L1287.63 48.7529L1286.76 47.6728L1264.72 65.3724L1265.59 66.4524ZM1286.65 48.6466L1286.66 48.6487L1287.74 47.7813L1287.73 47.7791L1286.65 48.6466ZM1286.51 48.3059L1286.51 48.3091L1287.88 48.1209L1287.88 48.1177L1286.51 48.3059Z" fill="#C3C3C3"/>
<path d="M1287.19 48.2128L1265.16 65.9124L1269.35 96.5286L1303.79 68.873L1287.19 48.2128Z" fill="#FF4F4F"/>
<path d="M1303.79 68.8748L1269.36 96.5304L1298.34 107.234L1320.38 89.5349L1303.79 68.8748Z" fill="#E03535"/>
<path d="M1316.19 58.9159L1287.2 48.2118L1291.39 78.828L1320.38 89.5321L1316.19 58.9159Z" fill="#FF6C6C"/>
<path fill-rule="evenodd" clip-rule="evenodd" d="M167.561 681.566L136.702 679.934L120.74 706.394L120.743 706.394L120.74 706.396L133.982 731.367L164.841 733L151.598 708.027L151.599 708.027L151.599 708.027L164.841 733L180.804 706.539L167.562 681.568L167.56 681.569L167.561 681.566Z" fill="#E6DFDF"/>
<path d="M136.702 679.934L136.109 679.576L136.324 679.22L136.739 679.242L136.702 679.934ZM167.561 681.566L167.598 680.875L168.751 680.936L168.154 681.924L167.561 681.566ZM120.74 706.394L120.703 707.086L119.55 707.025L120.146 706.036L120.74 706.394ZM120.743 706.394L120.779 705.703L123.276 705.835L121.067 707.006L120.743 706.394ZM120.74 706.396L120.128 706.72L119.804 706.108L120.416 705.784L120.74 706.396ZM133.982 731.367L133.945 732.059L133.553 732.038L133.37 731.692L133.982 731.367ZM164.841 733L165.453 732.676L166.026 733.756L164.804 733.692L164.841 733ZM151.598 708.027L150.987 708.351L150.414 707.271L151.635 707.335L151.598 708.027ZM151.599 708.027L152.192 708.385L151.977 708.74L151.562 708.718L151.599 708.027ZM151.599 708.027L151.006 707.669L151.638 706.622L152.211 707.702L151.599 708.027ZM164.841 733L165.434 733.358L164.802 734.405L164.229 733.324L164.841 733ZM180.804 706.539L181.416 706.215L181.599 706.561L181.397 706.897L180.804 706.539ZM167.562 681.568L167.238 680.956L167.85 680.631L168.174 681.243L167.562 681.568ZM167.56 681.569L167.884 682.181L165.675 683.352L166.967 681.211L167.56 681.569ZM136.739 679.242L167.598 680.875L167.525 682.258L136.665 680.625L136.739 679.242ZM120.146 706.036L136.109 679.576L137.295 680.291L121.333 706.752L120.146 706.036ZM120.706 707.086L120.703 707.086L120.776 705.702L120.779 705.703L120.706 707.086ZM121.067 707.006L121.065 707.008L120.416 705.784L120.418 705.782L121.067 707.006ZM121.352 706.071L134.594 731.043L133.37 731.692L120.128 706.72L121.352 706.071ZM134.018 730.676L164.878 732.309L164.804 733.692L133.945 732.059L134.018 730.676ZM164.229 733.325L150.987 708.351L152.21 707.702L165.453 732.676L164.229 733.325ZM151.562 708.718L151.562 708.718L151.635 707.335L151.635 707.335L151.562 708.718ZM152.192 708.385L152.192 708.385L151.006 707.669L151.006 707.669L152.192 708.385ZM152.211 707.702L165.453 732.676L164.229 733.324L150.987 708.351L152.211 707.702ZM164.248 732.642L180.211 706.182L181.397 706.897L165.434 733.358L164.248 732.642ZM180.192 706.864L166.95 681.892L168.174 681.243L181.416 706.215L180.192 706.864ZM167.887 682.18L167.884 682.181L167.235 680.957L167.238 680.956L167.887 682.18ZM168.154 681.924L168.153 681.927L166.967 681.211L166.968 681.209L168.154 681.924Z" fill="#C3C3C3"/>
<path d="M167.562 681.568L180.804 706.539L164.841 733L144.151 693.982L167.562 681.568Z" fill="#FF4F4F"/>
<path d="M144.149 693.983L164.839 733.001L133.98 731.368L120.738 706.397L144.149 693.983Z" fill="#E03535"/>
<path d="M136.702 679.934L167.561 681.566L151.599 708.027L120.74 706.394L136.702 679.934Z" fill="#FF6C6C"/>
<path fill-rule="evenodd" clip-rule="evenodd" d="M310.791 162.639L293.548 136.995L262.806 140.14L262.808 140.143L262.805 140.142L250.806 165.734L268.048 191.378L280.048 165.785L280.049 165.785L268.048 191.379L298.79 188.233L310.79 162.641L310.787 162.64L310.791 162.639Z" fill="#E6DFDF"/>
<path d="M293.548 136.995L293.478 136.306L293.891 136.263L294.123 136.608L293.548 136.995ZM310.791 162.639L311.365 162.253L312.009 163.211L310.861 163.329L310.791 162.639ZM262.806 140.14L262.231 140.527L261.587 139.569L262.736 139.451L262.806 140.14ZM262.808 140.143L263.383 139.757L264.778 141.832L262.514 140.77L262.808 140.143ZM262.805 140.142L262.178 139.848L262.472 139.221L263.099 139.515L262.805 140.142ZM250.806 165.734L250.231 166.12L250.012 165.795L250.179 165.44L250.806 165.734ZM268.048 191.378L268.675 191.672L268.156 192.78L267.473 191.765L268.048 191.378ZM280.048 165.785L279.421 165.491L279.944 164.376L280.625 165.402L280.048 165.785ZM280.049 165.785L280.625 165.402L280.841 165.726L280.676 166.079L280.049 165.785ZM268.048 191.379L268.119 192.068L266.902 192.192L267.421 191.085L268.048 191.379ZM298.79 188.233L299.417 188.527L299.251 188.882L298.861 188.922L298.79 188.233ZM310.79 162.641L311.084 162.014L311.711 162.308L311.417 162.935L310.79 162.641ZM310.787 162.64L310.493 163.267L308.229 162.205L310.717 161.951L310.787 162.64ZM294.123 136.608L311.365 162.253L310.216 163.026L292.973 137.381L294.123 136.608ZM262.736 139.451L293.478 136.306L293.619 137.684L262.877 140.829L262.736 139.451ZM262.233 140.53L262.231 140.527L263.381 139.754L263.383 139.757L262.233 140.53ZM262.514 140.77L262.511 140.769L263.099 139.515L263.102 139.516L262.514 140.77ZM263.432 140.436L251.433 166.028L250.179 165.44L262.178 139.848L263.432 140.436ZM251.38 165.347L268.623 190.992L267.473 191.765L250.231 166.12L251.38 165.347ZM267.421 191.084L279.421 165.491L280.676 166.079L268.675 191.672L267.421 191.084ZM279.472 166.168L279.472 166.168L280.625 165.402L280.625 165.402L279.472 166.168ZM280.676 166.079L268.675 191.673L267.421 191.085L279.421 165.491L280.676 166.079ZM267.978 190.69L298.72 187.544L298.861 188.922L268.119 192.068L267.978 190.69ZM298.163 187.939L310.163 162.347L311.417 162.935L299.417 188.527L298.163 187.939ZM310.496 163.268L310.493 163.267L311.081 162.013L311.084 162.014L310.496 163.268ZM310.861 163.329L310.858 163.329L310.717 161.951L310.72 161.95L310.861 163.329Z" fill="#C3C3C3"/>
<path d="M310.79 162.641L298.79 188.233L268.048 191.379L286.797 151.391L310.79 162.641Z" fill="#FF4F4F"/>
<path d="M286.795 151.391L268.046 191.378L250.803 165.733L262.803 140.141L286.795 151.391Z" fill="#E03535"/>
<path d="M293.548 136.995L310.791 162.639L280.049 165.785L262.806 140.14L293.548 136.995Z" fill="#FF6C6C"/>
<path fill-rule="evenodd" clip-rule="evenodd" d="M445.103 556.749L414.584 551.896L395.94 576.54L395.943 576.541L395.94 576.542L406.496 602.762L437.014 607.616L426.458 581.394L426.459 581.394L426.459 581.394L437.015 607.616L455.659 582.971L445.103 556.751L445.101 556.752L445.103 556.749Z" fill="#E6DFDF"/>
<path d="M414.584 551.896L414.031 551.478L414.282 551.146L414.692 551.212L414.584 551.896ZM445.103 556.749L445.211 556.065L446.351 556.246L445.655 557.167L445.103 556.749ZM395.94 576.54L395.831 577.224L394.691 577.043L395.387 576.123L395.94 576.54ZM395.943 576.541L396.052 575.857L398.522 576.249L396.202 577.183L395.943 576.541ZM395.94 576.542L395.298 576.801L395.039 576.158L395.681 575.9L395.94 576.542ZM406.496 602.762L406.387 603.446L405.999 603.385L405.853 603.021L406.496 602.762ZM437.014 607.616L437.657 607.357L438.114 608.492L436.906 608.3L437.014 607.616ZM426.458 581.394L425.816 581.652L425.359 580.518L426.567 580.71L426.458 581.394ZM426.459 581.394L427.002 581.823L426.75 582.141L426.35 582.078L426.459 581.394ZM426.459 581.394L425.915 580.964L426.655 580.028L427.101 581.135L426.459 581.394ZM437.015 607.616L437.567 608.033L436.829 609.009L436.372 607.874L437.015 607.616ZM455.659 582.971L456.301 582.712L456.448 583.076L456.211 583.389L455.659 582.971ZM445.103 556.751L444.845 556.108L445.487 555.849L445.746 556.492L445.103 556.751ZM445.101 556.752L445.359 557.394L443.04 558.328L444.548 556.334L445.101 556.752ZM414.692 551.212L445.211 556.065L444.994 557.433L414.475 552.58L414.692 551.212ZM395.387 576.123L414.031 551.478L415.136 552.314L396.492 576.958L395.387 576.123ZM395.834 577.225L395.831 577.224L396.048 575.856L396.052 575.857L395.834 577.225ZM396.202 577.183L396.199 577.185L395.681 575.9L395.684 575.898L396.202 577.183ZM396.583 576.283L407.138 602.504L405.853 603.021L395.298 576.801L396.583 576.283ZM406.604 602.078L437.123 606.932L436.906 608.3L406.387 603.446L406.604 602.078ZM436.372 607.874L425.816 581.652L427.101 581.135L437.657 607.357L436.372 607.874ZM426.35 582.078L426.35 582.078L426.567 580.71L426.567 580.71L426.35 582.078ZM427.002 581.823L427.002 581.823L425.915 580.964L425.915 580.964L427.002 581.823ZM427.101 581.135L437.657 607.357L436.372 607.874L425.816 581.652L427.101 581.135ZM436.462 607.198L455.106 582.553L456.211 583.389L437.567 608.033L436.462 607.198ZM455.016 583.23L444.461 557.009L445.746 556.492L456.301 582.712L455.016 583.23ZM445.362 557.393L445.359 557.394L444.842 556.109L444.845 556.108L445.362 557.393ZM445.655 557.167L445.653 557.169L444.548 556.334L444.55 556.331L445.655 557.167Z" fill="#C3C3C3"/>
<path d="M445.103 556.75L455.659 582.971L437.015 607.616L420.522 566.646L445.103 556.75Z" fill="#FF4F4F"/>
<path d="M420.52 566.647L437.013 607.616L406.494 602.763L395.938 576.543L420.52 566.647Z" fill="#E03535"/>
<path d="M414.584 551.896L445.103 556.749L426.459 581.394L395.94 576.54L414.584 551.896Z" fill="#FF6C6C"/>
<path fill-rule="evenodd" clip-rule="evenodd" d="M153.345 46.956L124.356 57.6601L120.159 88.2763L120.161 88.2753L120.159 88.2775L142.197 105.977L171.186 95.273L149.148 77.5723L149.148 77.5722L171.187 95.2728L175.384 64.6566L153.346 46.957L153.345 46.959L153.345 46.956Z" fill="#E6DFDF"/>
<path d="M124.356 57.6601L123.67 57.5661L123.726 57.1543L124.116 57.0104L124.356 57.6601ZM153.345 46.956L153.105 46.3063L154.188 45.9064L154.031 47.0501L153.345 46.956ZM120.159 88.2763L120.399 88.926L119.316 89.3259L119.472 88.1822L120.159 88.2763ZM120.161 88.2753L119.921 87.6256L122.267 86.7594L120.701 88.709L120.161 88.2753ZM120.159 88.2775L119.726 88.8175L119.186 88.3838L119.619 87.8438L120.159 88.2775ZM142.197 105.977L142.437 106.627L142.069 106.763L141.763 106.517L142.197 105.977ZM171.186 95.273L171.62 94.733L172.574 95.499L171.426 95.9227L171.186 95.273ZM149.148 77.5723L148.714 78.1123L147.759 77.3457L148.908 76.9224L149.148 77.5723ZM149.148 77.5722L148.909 76.9223L149.276 76.7868L149.582 77.0322L149.148 77.5722ZM171.187 95.2728L171.873 95.3668L171.707 96.5788L170.753 95.8128L171.187 95.2728ZM175.384 64.6566L175.818 64.1166L176.123 64.3622L176.07 64.7507L175.384 64.6566ZM153.346 46.957L152.806 46.5233L153.24 45.9833L153.78 46.417L153.346 46.957ZM153.345 46.959L153.885 47.3927L152.319 49.3423L152.659 46.8649L153.345 46.959ZM124.116 57.0104L153.105 46.3063L153.585 47.6057L124.596 58.3099L124.116 57.0104ZM119.472 88.1822L123.67 57.5661L125.042 57.7542L120.845 88.3703L119.472 88.1822ZM120.401 88.925L120.399 88.926L119.919 87.6265L119.921 87.6256L120.401 88.925ZM120.701 88.709L120.699 88.7112L119.619 87.8438L119.621 87.8416L120.701 88.709ZM120.593 87.7375L142.631 105.437L141.763 106.517L119.726 88.8175L120.593 87.7375ZM141.957 105.327L170.946 94.6233L171.426 95.9227L142.437 106.627L141.957 105.327ZM170.753 95.813L148.714 78.1123L149.581 77.0323L171.62 94.733L170.753 95.813ZM149.387 78.2221L149.387 78.2222L148.908 76.9224L148.909 76.9223L149.387 78.2221ZM149.582 77.0322L171.62 94.7328L170.753 95.8128L148.714 78.1122L149.582 77.0322ZM170.5 95.1787L174.698 64.5626L176.07 64.7507L171.873 95.3668L170.5 95.1787ZM174.95 65.1966L152.913 47.497L153.78 46.417L175.818 64.1166L174.95 65.1966ZM153.886 47.3907L153.885 47.3927L152.805 46.5253L152.806 46.5233L153.886 47.3907ZM154.031 47.0501L154.031 47.0531L152.659 46.8649L152.659 46.8619L154.031 47.0501Z" fill="#C3C3C3"/>
<path d="M153.346 46.957L175.384 64.6566L171.187 95.2728L136.753 67.6172L153.346 46.957Z" fill="#FF4F4F"/>
<path d="M136.752 67.619L171.185 95.2746L142.196 105.979L120.159 88.2791L136.752 67.619Z" fill="#E03535"/>
<path d="M124.356 57.6601L153.345 46.956L149.148 77.5722L120.159 88.2763L124.356 57.6601Z" fill="#FF6C6C"/>
</g>
<defs>
<filter id="filter0_d_34_297" x="-14" y="-334" width="1468" height="1468" filterUnits="userSpaceOnUse" color-interpolation-filters="sRGB">
<feFlood flood-opacity="0" result="BackgroundImageFix"/>
<feColorMatrix in="SourceAlpha" type="matrix" values="0 0 0 0 0 0 0 0 0 0 0 0 0 0 0 0 0 0 127 0" result="hardAlpha"/>
<feOffset/>
<feGaussianBlur stdDeviation="42"/>
<feComposite in2="hardAlpha" operator="out"/>
<feColorMatrix type="matrix" values="0 0 0 0 0.807843 0 0 0 0 0.0980392 0 0 0 0 0.176471 0 0 0 0.5 0"/>
<feBlend mode="normal" in2="BackgroundImageFix" result="effect1_dropShadow_34_297"/>
<feBlend mode="normal" in="SourceGraphic" in2="effect1_dropShadow_34_297" result="shape"/>
</filter>
<filter id="filter1_f_34_297" x="332" y="12" width="776" height="776" filterUnits="userSpaceOnUse" color-interpolation-filters="sRGB">
<feFlood flood-opacity="0" result="BackgroundImageFix"/>
<feBlend mode="normal" in="SourceGraphic" in2="BackgroundImageFix" result="shape"/>
<feGaussianBlur stdDeviation="75" result="effect1_foregroundBlur_34_297"/>
</filter>
<clipPath id="clip0_34_297">
<rect width="1440" height="800" fill="white"/>
</clipPath>
</defs>
</svg>
